<!--?xml version="1.0" standalone="no"?-->
              <svg id="sw-js-blob-svg" viewBox="0 0 100 100" xmlns="http://www.w3.org/2000/svg" version="1.1">
                    <defs> 
                        <linearGradient id="sw-gradient" x1="0" x2="1" y1="1" y2="0">
                            <stop id="stop1" stop-color="rgba(248, 117, 55, 1)" offset="0%"></stop>
                            <stop id="stop2" stop-color="rgba(255, 175.395, 44, 1)" offset="100%"></stop>
                        </linearGradient>
                    </defs>
                <path fill="url(#sw-gradient)" d="M25.2,-30.3C30.3,-25.7,30.5,-15.6,30,-6.9C29.6,1.7,28.6,8.8,26.3,17.5C24,26.1,20.5,36.4,13.6,39.9C6.8,43.5,-3.4,40.3,-10.5,35C-17.6,29.7,-21.6,22.3,-23.1,15.4C-24.6,8.6,-23.5,2.3,-22.2,-3.8C-21,-9.8,-19.6,-15.7,-15.8,-20.6C-12.1,-25.4,-6,-29.2,2,-31.6C10,-34,20.1,-34.9,25.2,-30.3Z" width="100%" height="100%" transform="translate(50 50)" stroke-width="0" style="transition: all 0.3s ease 0s;"></path>
              </svg>